<?xml version="1.0" encoding="UTF-8"?>
<svg id="Layer_1" xmlns="http://www.w3.org/2000/svg" version="1.1" viewBox="0 0 281 648">
  <!-- Generator: Adobe Illustrator 30.1.0, SVG Export Plug-In . SVG Version: 2.1.1 Build 136)  -->
  <defs>
    <style>
      .st0 {
        fill: #f39357;
        fill-opacity: .2;
        fill-rule: evenodd;
        stroke: #0e3e6c;
        stroke-linecap: round;
        stroke-linejoin: round;
      }
    </style>
  </defs>
  <path class="st0"
    d="M3.5,385.5l-3,8,1,3,13,21v5l-4,8v5l5,10v3l-7,7,4,10-1,13h7l2-2,3,2,4-3v5h15l2-8,3,2v6h7l1-2,26,3,8,8,1,6,6,10,6,18-6,6-4,10-5,1-6-4v-2l-5-3v-2l-6-3-6,2-6,6h-4l2,4-5,3-4-1v5l-7,6v14l19-7,22,5-2,2v3h2l2,4-1,5-7,8,1,3-5,5-11,6-9,14,6,20,7,8,7,1,2-1,1-7h8l1,10,6,3,6-1v-24h31l3-6-5-9-2-1-2-12,8,1,2-2h7l-1-4,6-7v-3l9,8,8,4,4-7-2-6-6-9-2-10,1-16,4-5,2-11-2-9v-26l3-11h-18v-98l-22-3-16-6h-8v-20l-3-5,11-10,3,1,12-2,1-10,9-7v-2h6l8-11,3-9-4-11,2-7,7-1,9,5,5-4,4,2,1-3h3l4-3,2,3-3,2h5l15-21-3-19,1-3,18-28,14-10,4-14-4-22,3-29v-18l-13-10-8,1-4-3-4-8v-12l1-3,6,2,32-4,2-2,7,8,3,1h20l7-5-2-4v-10l3-3-26-25-7-12-2,3-9,4-20,14-14-7-14-13-6-7-9-21-3-2h-20l-25,22-5,9-1,21-5,7-4,1v4h4l3,7-3,4,1,9,2,2-7,7,2,2-2,5,4,3v3h-2l-1,3,1,2h9l-2,3,2,5,3,2,1,4,5,6,1,5,7,2,4,4-5,4v2l6,3,3,4,6-1,7,3,11,9,3,7-4,28-6,11h-7l-5,3-2,6,4,6v10l-17,21-18,14-44,53-25,16-6,6-19,9-2,11-5,6-12,9-2,3Z" />
</svg>
